<mxfile host="app.diagrams.net" modified="2023-09-22T17:46:06.392Z" agent="Mozilla/5.0 (Macintosh; Intel Mac OS X 10_15_7) AppleWebKit/605.1.15 (KHTML, like Gecko) Version/15.4 Safari/605.1.15" etag="qdmkbgusRflwVxtS_MbQ" version="21.7.5" type="device">
  <diagram id="C5RBs43oDa-KdzZeNtuy" name="Page-1">
    <mxGraphModel dx="1080" dy="882" grid="1" gridSize="10" guides="1" tooltips="1" connect="1" arrows="1" fold="1" page="1" pageScale="1" pageWidth="827" pageHeight="1169" math="0" shadow="0">
      <root>
        <mxCell id="WIyWlLk6GJQsqaUBKTNV-0" />
        <mxCell id="WIyWlLk6GJQsqaUBKTNV-1" parent="WIyWlLk6GJQsqaUBKTNV-0" />
        <mxCell id="MDvvoWK_F6UgvLszBhcK-12" style="edgeStyle=orthogonalEdgeStyle;rounded=0;orthogonalLoop=1;jettySize=auto;html=1;exitX=0.5;exitY=0;exitDx=0;exitDy=0;endArrow=none;endFill=0;startArrow=classic;startFill=1;" parent="WIyWlLk6GJQsqaUBKTNV-1" source="D7f5AKQHRCtzAQtNA1vA-325" edge="1">
          <mxGeometry relative="1" as="geometry">
            <mxPoint x="390" y="270" as="targetPoint" />
          </mxGeometry>
        </mxCell>
        <mxCell id="D7f5AKQHRCtzAQtNA1vA-325" value="&lt;div&gt;&lt;font style=&quot;font-size: 16px;&quot;&gt;Fully connected leaves&lt;/font&gt;&lt;/div&gt;" style="rounded=0;whiteSpace=wrap;html=1;labelPosition=center;verticalLabelPosition=bottom;align=center;verticalAlign=top;strokeWidth=1;" parent="WIyWlLk6GJQsqaUBKTNV-1" vertex="1">
          <mxGeometry x="260" y="302" width="260" height="98" as="geometry" />
        </mxCell>
        <mxCell id="D7f5AKQHRCtzAQtNA1vA-238" value="" style="curved=1;endArrow=none;html=1;rounded=0;endFill=0;entryX=0;entryY=0.5;entryDx=0;entryDy=0;" parent="WIyWlLk6GJQsqaUBKTNV-1" target="D7f5AKQHRCtzAQtNA1vA-153" edge="1">
          <mxGeometry width="50" height="50" relative="1" as="geometry">
            <mxPoint x="316" y="374" as="sourcePoint" />
            <mxPoint x="297" y="325.94" as="targetPoint" />
            <Array as="points">
              <mxPoint x="306" y="364" />
              <mxPoint x="296" y="344" />
            </Array>
          </mxGeometry>
        </mxCell>
        <mxCell id="D7f5AKQHRCtzAQtNA1vA-239" value="" style="curved=1;endArrow=none;html=1;rounded=0;endFill=0;entryX=0;entryY=0.5;entryDx=0;entryDy=0;" parent="WIyWlLk6GJQsqaUBKTNV-1" edge="1">
          <mxGeometry width="50" height="50" relative="1" as="geometry">
            <mxPoint x="331" y="376" as="sourcePoint" />
            <mxPoint x="348" y="326" as="targetPoint" />
            <Array as="points">
              <mxPoint x="341" y="366" />
              <mxPoint x="351" y="346" />
            </Array>
          </mxGeometry>
        </mxCell>
        <mxCell id="D7f5AKQHRCtzAQtNA1vA-240" value="" style="curved=1;endArrow=none;html=1;rounded=0;endFill=0;entryX=0;entryY=0.5;entryDx=0;entryDy=0;" parent="WIyWlLk6GJQsqaUBKTNV-1" edge="1">
          <mxGeometry width="50" height="50" relative="1" as="geometry">
            <mxPoint x="389" y="375" as="sourcePoint" />
            <mxPoint x="372" y="325" as="targetPoint" />
            <Array as="points">
              <mxPoint x="379" y="365" />
              <mxPoint x="369" y="345" />
            </Array>
          </mxGeometry>
        </mxCell>
        <mxCell id="D7f5AKQHRCtzAQtNA1vA-241" value="&lt;b&gt;&lt;font style=&quot;font-size: 16px;&quot;&gt;...&lt;/font&gt;&lt;/b&gt;" style="strokeWidth=0;dashed=0;align=center;fontSize=8;shape=ellipse;perimeter=ellipsePerimeter;whiteSpace=wrap;html=1;aspect=fixed;strokeColor=none;" parent="WIyWlLk6GJQsqaUBKTNV-1" vertex="1">
          <mxGeometry x="437.84" y="337.3" width="22.16" height="15.33" as="geometry" />
        </mxCell>
        <mxCell id="D7f5AKQHRCtzAQtNA1vA-286" value="" style="curved=1;endArrow=none;html=1;rounded=0;endFill=0;entryX=0;entryY=0.5;entryDx=0;entryDy=0;" parent="WIyWlLk6GJQsqaUBKTNV-1" edge="1">
          <mxGeometry width="50" height="50" relative="1" as="geometry">
            <mxPoint x="406" y="376" as="sourcePoint" />
            <mxPoint x="423" y="326" as="targetPoint" />
            <Array as="points">
              <mxPoint x="416" y="366" />
              <mxPoint x="426" y="346" />
            </Array>
          </mxGeometry>
        </mxCell>
        <mxCell id="D7f5AKQHRCtzAQtNA1vA-326" value="" style="group;labelPosition=center;verticalLabelPosition=bottom;align=center;verticalAlign=top;strokeWidth=2;" parent="WIyWlLk6GJQsqaUBKTNV-1" vertex="1" connectable="0">
          <mxGeometry x="113" y="299.04" width="120" height="121.96" as="geometry" />
        </mxCell>
        <mxCell id="R48aDF-17FCD-8zo76Ul-1" style="edgeStyle=orthogonalEdgeStyle;rounded=0;orthogonalLoop=1;jettySize=auto;html=1;exitX=0.5;exitY=1;exitDx=0;exitDy=0;entryX=0.5;entryY=0;entryDx=0;entryDy=0;" parent="D7f5AKQHRCtzAQtNA1vA-326" source="D7f5AKQHRCtzAQtNA1vA-49" target="D7f5AKQHRCtzAQtNA1vA-45" edge="1">
          <mxGeometry relative="1" as="geometry" />
        </mxCell>
        <mxCell id="D7f5AKQHRCtzAQtNA1vA-49" value="&lt;font style=&quot;font-size: 16px;&quot;&gt;Seed KG &lt;br&gt;&lt;/font&gt;" style="rounded=0;whiteSpace=wrap;html=1;strokeWidth=1;dashed=1;labelPosition=center;verticalLabelPosition=bottom;align=center;verticalAlign=top;" parent="D7f5AKQHRCtzAQtNA1vA-326" vertex="1">
          <mxGeometry width="120" height="121.96" as="geometry" />
        </mxCell>
        <mxCell id="D7f5AKQHRCtzAQtNA1vA-42" value="" style="group;fillColor=default;" parent="D7f5AKQHRCtzAQtNA1vA-326" vertex="1" connectable="0">
          <mxGeometry x="13" y="9.381538461538462" width="100" height="63.79446153846153" as="geometry" />
        </mxCell>
        <mxCell id="D7f5AKQHRCtzAQtNA1vA-11" value="" style="strokeWidth=1;dashed=0;align=center;fontSize=8;shape=ellipse;perimeter=ellipsePerimeter;whiteSpace=wrap;html=1;aspect=fixed;fillColor=#dae8fc;strokeColor=#6c8ebf;" parent="D7f5AKQHRCtzAQtNA1vA-42" vertex="1">
          <mxGeometry y="51.426147566718996" width="16.925061224489795" height="11.717350078492936" as="geometry" />
        </mxCell>
        <mxCell id="D7f5AKQHRCtzAQtNA1vA-12" value="" style="strokeWidth=1;dashed=0;align=center;fontSize=8;shape=ellipse;perimeter=ellipsePerimeter;whiteSpace=wrap;html=1;aspect=fixed;fillColor=#dae8fc;strokeColor=#6c8ebf;" parent="D7f5AKQHRCtzAQtNA1vA-42" vertex="1">
          <mxGeometry x="78.33333333333334" y="52.0771114599686" width="16.925061224489795" height="11.717350078492936" as="geometry" />
        </mxCell>
        <mxCell id="D7f5AKQHRCtzAQtNA1vA-16" value="" style="strokeWidth=1;dashed=0;align=center;fontSize=8;shape=ellipse;perimeter=ellipsePerimeter;whiteSpace=wrap;html=1;aspect=fixed;fillColor=#dae8fc;strokeColor=#6c8ebf;" parent="D7f5AKQHRCtzAQtNA1vA-42" vertex="1">
          <mxGeometry x="39.16666666666667" y="52.0771114599686" width="16.925061224489795" height="11.717350078492936" as="geometry" />
        </mxCell>
        <mxCell id="D7f5AKQHRCtzAQtNA1vA-18" value="" style="edgeStyle=none;endArrow=none;dashed=0;html=1;strokeWidth=1;rounded=0;" parent="D7f5AKQHRCtzAQtNA1vA-42" source="D7f5AKQHRCtzAQtNA1vA-16" target="D7f5AKQHRCtzAQtNA1vA-11" edge="1">
          <mxGeometry relative="1" as="geometry" />
        </mxCell>
        <mxCell id="D7f5AKQHRCtzAQtNA1vA-19" value="" style="edgeStyle=none;endArrow=none;dashed=0;html=1;strokeWidth=1;rounded=0;" parent="D7f5AKQHRCtzAQtNA1vA-42" source="D7f5AKQHRCtzAQtNA1vA-16" target="D7f5AKQHRCtzAQtNA1vA-12" edge="1">
          <mxGeometry relative="1" as="geometry" />
        </mxCell>
        <mxCell id="D7f5AKQHRCtzAQtNA1vA-28" value="" style="strokeWidth=1;dashed=0;align=center;fontSize=8;shape=ellipse;perimeter=ellipsePerimeter;whiteSpace=wrap;html=1;aspect=fixed;fillColor=#dae8fc;strokeColor=#6c8ebf;" parent="D7f5AKQHRCtzAQtNA1vA-42" vertex="1">
          <mxGeometry x="78.33333333333334" width="16.925061224489795" height="11.717350078492936" as="geometry" />
        </mxCell>
        <mxCell id="D7f5AKQHRCtzAQtNA1vA-29" value="" style="strokeWidth=1;dashed=0;align=center;fontSize=8;shape=ellipse;perimeter=ellipsePerimeter;whiteSpace=wrap;html=1;aspect=fixed;fillColor=#dae8fc;strokeColor=#6c8ebf;" parent="D7f5AKQHRCtzAQtNA1vA-42" vertex="1">
          <mxGeometry y="11.717350078492936" width="16.925061224489795" height="11.717350078492936" as="geometry" />
        </mxCell>
        <mxCell id="D7f5AKQHRCtzAQtNA1vA-30" value="" style="strokeWidth=1;dashed=0;align=center;fontSize=8;shape=ellipse;perimeter=ellipsePerimeter;whiteSpace=wrap;html=1;aspect=fixed;fillColor=#dae8fc;strokeColor=#6c8ebf;" parent="D7f5AKQHRCtzAQtNA1vA-42" vertex="1">
          <mxGeometry x="78.33333333333334" y="23.434700156985873" width="16.925061224489795" height="11.717350078492936" as="geometry" />
        </mxCell>
        <mxCell id="D7f5AKQHRCtzAQtNA1vA-31" value="" style="strokeWidth=1;dashed=0;align=center;fontSize=8;shape=ellipse;perimeter=ellipsePerimeter;whiteSpace=wrap;html=1;aspect=fixed;fillColor=#dae8fc;strokeColor=#6c8ebf;" parent="D7f5AKQHRCtzAQtNA1vA-42" vertex="1">
          <mxGeometry x="39.16666666666667" y="11.717350078492936" width="16.925061224489795" height="11.717350078492936" as="geometry" />
        </mxCell>
        <mxCell id="D7f5AKQHRCtzAQtNA1vA-34" value="" style="edgeStyle=none;endArrow=none;dashed=0;html=1;strokeWidth=1;rounded=0;" parent="D7f5AKQHRCtzAQtNA1vA-42" source="D7f5AKQHRCtzAQtNA1vA-31" target="D7f5AKQHRCtzAQtNA1vA-28" edge="1">
          <mxGeometry relative="1" as="geometry" />
        </mxCell>
        <mxCell id="D7f5AKQHRCtzAQtNA1vA-35" value="" style="edgeStyle=none;endArrow=none;dashed=0;html=1;strokeWidth=1;rounded=0;" parent="D7f5AKQHRCtzAQtNA1vA-42" source="D7f5AKQHRCtzAQtNA1vA-31" target="D7f5AKQHRCtzAQtNA1vA-29" edge="1">
          <mxGeometry relative="1" as="geometry" />
        </mxCell>
        <mxCell id="D7f5AKQHRCtzAQtNA1vA-36" value="" style="edgeStyle=none;endArrow=none;dashed=0;html=1;strokeWidth=1;rounded=0;" parent="D7f5AKQHRCtzAQtNA1vA-42" source="D7f5AKQHRCtzAQtNA1vA-31" target="D7f5AKQHRCtzAQtNA1vA-30" edge="1">
          <mxGeometry relative="1" as="geometry" />
        </mxCell>
        <mxCell id="D7f5AKQHRCtzAQtNA1vA-43" value="" style="strokeWidth=1;dashed=0;align=center;fontSize=8;shape=ellipse;perimeter=ellipsePerimeter;whiteSpace=wrap;html=1;aspect=fixed;fillColor=#dae8fc;strokeColor=#6c8ebf;" parent="D7f5AKQHRCtzAQtNA1vA-326" vertex="1">
          <mxGeometry x="13" y="93.81193833594975" width="16.925061224489795" height="11.717350078492936" as="geometry" />
        </mxCell>
        <mxCell id="D7f5AKQHRCtzAQtNA1vA-44" value="" style="strokeWidth=1;dashed=0;align=center;fontSize=8;shape=ellipse;perimeter=ellipsePerimeter;whiteSpace=wrap;html=1;aspect=fixed;fillColor=#dae8fc;strokeColor=#6c8ebf;" parent="D7f5AKQHRCtzAQtNA1vA-326" vertex="1">
          <mxGeometry x="91.33333333333337" y="94.46290222919937" width="16.925061224489795" height="11.717350078492936" as="geometry" />
        </mxCell>
        <mxCell id="D7f5AKQHRCtzAQtNA1vA-45" value="" style="strokeWidth=1;dashed=0;align=center;fontSize=8;shape=ellipse;perimeter=ellipsePerimeter;whiteSpace=wrap;html=1;aspect=fixed;fillColor=#dae8fc;strokeColor=#6c8ebf;" parent="D7f5AKQHRCtzAQtNA1vA-326" vertex="1">
          <mxGeometry x="52.166666666666686" y="94.46290222919937" width="16.925061224489795" height="11.717350078492936" as="geometry" />
        </mxCell>
        <mxCell id="D7f5AKQHRCtzAQtNA1vA-46" value="" style="edgeStyle=none;endArrow=none;dashed=0;html=1;strokeWidth=1;rounded=0;" parent="D7f5AKQHRCtzAQtNA1vA-326" source="D7f5AKQHRCtzAQtNA1vA-45" target="D7f5AKQHRCtzAQtNA1vA-43" edge="1">
          <mxGeometry relative="1" as="geometry" />
        </mxCell>
        <mxCell id="D7f5AKQHRCtzAQtNA1vA-47" value="" style="edgeStyle=none;endArrow=none;dashed=0;html=1;strokeWidth=1;rounded=0;" parent="D7f5AKQHRCtzAQtNA1vA-326" source="D7f5AKQHRCtzAQtNA1vA-45" target="D7f5AKQHRCtzAQtNA1vA-44" edge="1">
          <mxGeometry relative="1" as="geometry" />
        </mxCell>
        <mxCell id="R48aDF-17FCD-8zo76Ul-2" style="edgeStyle=orthogonalEdgeStyle;rounded=0;orthogonalLoop=1;jettySize=auto;html=1;exitX=0.5;exitY=1;exitDx=0;exitDy=0;" parent="D7f5AKQHRCtzAQtNA1vA-326" source="D7f5AKQHRCtzAQtNA1vA-49" target="D7f5AKQHRCtzAQtNA1vA-49" edge="1">
          <mxGeometry relative="1" as="geometry" />
        </mxCell>
        <mxCell id="o20jvKjjcpEYKb1I6eHj-14" value="" style="edgeStyle=none;endArrow=none;dashed=0;html=1;strokeWidth=1;rounded=0;" parent="WIyWlLk6GJQsqaUBKTNV-1" edge="1">
          <mxGeometry relative="1" as="geometry">
            <mxPoint x="469.16666666667084" y="210.59510204081627" as="sourcePoint" />
          </mxGeometry>
        </mxCell>
        <mxCell id="o20jvKjjcpEYKb1I6eHj-15" value="" style="edgeStyle=none;endArrow=none;dashed=0;html=1;strokeWidth=1;rounded=0;" parent="WIyWlLk6GJQsqaUBKTNV-1" edge="1">
          <mxGeometry relative="1" as="geometry">
            <mxPoint x="508.33333333333735" y="210.59510204081627" as="targetPoint" />
          </mxGeometry>
        </mxCell>
        <mxCell id="D7f5AKQHRCtzAQtNA1vA-245" value="" style="group" parent="WIyWlLk6GJQsqaUBKTNV-1" vertex="1" connectable="0">
          <mxGeometry x="297" y="320.07470588235304" width="129" height="65.925294117647" as="geometry" />
        </mxCell>
        <mxCell id="D7f5AKQHRCtzAQtNA1vA-180" value="" style="group" parent="D7f5AKQHRCtzAQtNA1vA-245" vertex="1" connectable="0">
          <mxGeometry width="55.808510638297875" height="65.925294117647" as="geometry" />
        </mxCell>
        <mxCell id="D7f5AKQHRCtzAQtNA1vA-153" value="" style="strokeWidth=1;dashed=0;align=center;fontSize=8;shape=ellipse;perimeter=ellipsePerimeter;whiteSpace=wrap;html=1;aspect=fixed;fillColor=#dae8fc;strokeColor=#6c8ebf;" parent="D7f5AKQHRCtzAQtNA1vA-180" vertex="1">
          <mxGeometry x="1.8297872340425534" y="1.0903029411764869" width="14.711489361702128" height="10.191914893617023" as="geometry" />
        </mxCell>
        <mxCell id="D7f5AKQHRCtzAQtNA1vA-154" value="" style="strokeWidth=1;dashed=0;align=center;fontSize=8;shape=ellipse;perimeter=ellipsePerimeter;whiteSpace=wrap;html=1;aspect=fixed;fillColor=#ffe6cc;strokeColor=#d79b00;" parent="D7f5AKQHRCtzAQtNA1vA-180" vertex="1">
          <mxGeometry x="18.608936170212797" y="22.566735294117642" width="16.157021276595746" height="11.180000000000001" as="geometry" />
        </mxCell>
        <mxCell id="D7f5AKQHRCtzAQtNA1vA-155" value="" style="edgeStyle=none;endArrow=none;dashed=0;html=1;strokeWidth=1;rounded=0;" parent="D7f5AKQHRCtzAQtNA1vA-180" source="D7f5AKQHRCtzAQtNA1vA-154" target="D7f5AKQHRCtzAQtNA1vA-153" edge="1">
          <mxGeometry relative="1" as="geometry" />
        </mxCell>
        <mxCell id="D7f5AKQHRCtzAQtNA1vA-179" style="edgeStyle=orthogonalEdgeStyle;rounded=0;orthogonalLoop=1;jettySize=auto;html=1;exitX=0.5;exitY=0;exitDx=0;exitDy=0;entryX=0.5;entryY=1;entryDx=0;entryDy=0;endArrow=none;endFill=0;" parent="D7f5AKQHRCtzAQtNA1vA-180" source="D7f5AKQHRCtzAQtNA1vA-159" target="D7f5AKQHRCtzAQtNA1vA-154" edge="1">
          <mxGeometry relative="1" as="geometry" />
        </mxCell>
        <mxCell id="D7f5AKQHRCtzAQtNA1vA-159" value="" style="strokeWidth=1;dashed=0;align=center;fontSize=8;shape=ellipse;perimeter=ellipsePerimeter;whiteSpace=wrap;html=1;aspect=fixed;fillColor=#dae8fc;strokeColor=#6c8ebf;" parent="D7f5AKQHRCtzAQtNA1vA-180" vertex="1">
          <mxGeometry x="20.054468085106347" y="51.8020676470588" width="14.711489361702128" height="10.191914893617023" as="geometry" />
        </mxCell>
        <mxCell id="D7f5AKQHRCtzAQtNA1vA-175" value="" style="group;flipV=0;flipH=1;" parent="D7f5AKQHRCtzAQtNA1vA-180" vertex="1" connectable="0">
          <mxGeometry x="32.02127659574469" width="23.787234042553195" height="22.262464705882337" as="geometry" />
        </mxCell>
        <mxCell id="D7f5AKQHRCtzAQtNA1vA-207" style="edgeStyle=orthogonalEdgeStyle;rounded=0;orthogonalLoop=1;jettySize=auto;html=1;exitX=0;exitY=0.5;exitDx=0;exitDy=0;endArrow=none;endFill=0;" parent="D7f5AKQHRCtzAQtNA1vA-175" source="D7f5AKQHRCtzAQtNA1vA-173" edge="1">
          <mxGeometry relative="1" as="geometry">
            <mxPoint x="-15.553191489361703" y="6.660145098039278" as="targetPoint" />
          </mxGeometry>
        </mxCell>
        <mxCell id="D7f5AKQHRCtzAQtNA1vA-173" value="" style="strokeWidth=1;dashed=0;align=center;fontSize=8;shape=ellipse;perimeter=ellipsePerimeter;whiteSpace=wrap;html=1;aspect=fixed;fillColor=#dae8fc;strokeColor=#6c8ebf;" parent="D7f5AKQHRCtzAQtNA1vA-175" vertex="1">
          <mxGeometry x="5.41617021276596" width="14.711489361702128" height="10.191914893617023" as="geometry" />
        </mxCell>
        <mxCell id="D7f5AKQHRCtzAQtNA1vA-174" value="" style="edgeStyle=none;endArrow=none;dashed=0;html=1;strokeWidth=1;rounded=0;" parent="D7f5AKQHRCtzAQtNA1vA-175" target="D7f5AKQHRCtzAQtNA1vA-173" edge="1">
          <mxGeometry relative="1" as="geometry">
            <mxPoint y="22.262464705882337" as="sourcePoint" />
          </mxGeometry>
        </mxCell>
        <mxCell id="D7f5AKQHRCtzAQtNA1vA-190" value="" style="group" parent="D7f5AKQHRCtzAQtNA1vA-245" vertex="1" connectable="0">
          <mxGeometry x="73.19148936170212" width="55.808510638297875" height="65.925294117647" as="geometry" />
        </mxCell>
        <mxCell id="D7f5AKQHRCtzAQtNA1vA-203" style="edgeStyle=orthogonalEdgeStyle;rounded=0;orthogonalLoop=1;jettySize=auto;html=1;exitX=1;exitY=0.5;exitDx=0;exitDy=0;entryX=0;entryY=0.5;entryDx=0;entryDy=0;endArrow=none;endFill=0;" parent="D7f5AKQHRCtzAQtNA1vA-190" source="D7f5AKQHRCtzAQtNA1vA-191" target="D7f5AKQHRCtzAQtNA1vA-197" edge="1">
          <mxGeometry relative="1" as="geometry" />
        </mxCell>
        <mxCell id="D7f5AKQHRCtzAQtNA1vA-191" value="" style="strokeWidth=1;dashed=0;align=center;fontSize=8;shape=ellipse;perimeter=ellipsePerimeter;whiteSpace=wrap;html=1;aspect=fixed;fillColor=#dae8fc;strokeColor=#6c8ebf;" parent="D7f5AKQHRCtzAQtNA1vA-190" vertex="1">
          <mxGeometry x="1.8297872340425534" y="1.0903029411764869" width="14.711489361702128" height="10.191914893617023" as="geometry" />
        </mxCell>
        <mxCell id="D7f5AKQHRCtzAQtNA1vA-243" style="edgeStyle=orthogonalEdgeStyle;rounded=0;orthogonalLoop=1;jettySize=auto;html=1;exitX=1;exitY=0.5;exitDx=0;exitDy=0;endArrow=none;endFill=0;" parent="D7f5AKQHRCtzAQtNA1vA-190" source="D7f5AKQHRCtzAQtNA1vA-192" edge="1">
          <mxGeometry relative="1" as="geometry">
            <mxPoint x="45.80851063829789" y="27.925294117647" as="targetPoint" />
          </mxGeometry>
        </mxCell>
        <mxCell id="D7f5AKQHRCtzAQtNA1vA-291" style="edgeStyle=orthogonalEdgeStyle;rounded=0;orthogonalLoop=1;jettySize=auto;html=1;exitX=1;exitY=0.5;exitDx=0;exitDy=0;endArrow=none;endFill=0;" parent="D7f5AKQHRCtzAQtNA1vA-190" source="D7f5AKQHRCtzAQtNA1vA-192" edge="1">
          <mxGeometry relative="1" as="geometry">
            <mxPoint x="65.808510638298" y="28.270121703853874" as="targetPoint" />
          </mxGeometry>
        </mxCell>
        <mxCell id="D7f5AKQHRCtzAQtNA1vA-192" value="" style="strokeWidth=1;dashed=0;align=center;fontSize=8;shape=ellipse;perimeter=ellipsePerimeter;whiteSpace=wrap;html=1;aspect=fixed;fillColor=#ffe6cc;strokeColor=#d79b00;" parent="D7f5AKQHRCtzAQtNA1vA-190" vertex="1">
          <mxGeometry x="20.43872340425535" y="22.566735294117642" width="16.157021276595746" height="11.180000000000001" as="geometry" />
        </mxCell>
        <mxCell id="D7f5AKQHRCtzAQtNA1vA-193" value="" style="edgeStyle=none;endArrow=none;dashed=0;html=1;strokeWidth=1;rounded=0;" parent="D7f5AKQHRCtzAQtNA1vA-190" source="D7f5AKQHRCtzAQtNA1vA-192" target="D7f5AKQHRCtzAQtNA1vA-191" edge="1">
          <mxGeometry relative="1" as="geometry" />
        </mxCell>
        <mxCell id="D7f5AKQHRCtzAQtNA1vA-194" style="edgeStyle=orthogonalEdgeStyle;rounded=0;orthogonalLoop=1;jettySize=auto;html=1;exitX=0.5;exitY=0;exitDx=0;exitDy=0;entryX=0.5;entryY=1;entryDx=0;entryDy=0;endArrow=none;endFill=0;" parent="D7f5AKQHRCtzAQtNA1vA-190" source="D7f5AKQHRCtzAQtNA1vA-195" target="D7f5AKQHRCtzAQtNA1vA-192" edge="1">
          <mxGeometry relative="1" as="geometry" />
        </mxCell>
        <mxCell id="D7f5AKQHRCtzAQtNA1vA-195" value="" style="strokeWidth=1;dashed=0;align=center;fontSize=8;shape=ellipse;perimeter=ellipsePerimeter;whiteSpace=wrap;html=1;aspect=fixed;fillColor=#dae8fc;strokeColor=#6c8ebf;" parent="D7f5AKQHRCtzAQtNA1vA-190" vertex="1">
          <mxGeometry x="21.884255319148902" y="51.8020676470588" width="14.711489361702128" height="10.191914893617023" as="geometry" />
        </mxCell>
        <mxCell id="D7f5AKQHRCtzAQtNA1vA-196" value="" style="group;flipV=0;flipH=1;" parent="D7f5AKQHRCtzAQtNA1vA-190" vertex="1" connectable="0">
          <mxGeometry x="32.02127659574469" width="23.787234042553195" height="22.262464705882337" as="geometry" />
        </mxCell>
        <mxCell id="D7f5AKQHRCtzAQtNA1vA-197" value="" style="strokeWidth=1;dashed=0;align=center;fontSize=8;shape=ellipse;perimeter=ellipsePerimeter;whiteSpace=wrap;html=1;aspect=fixed;fillColor=#dae8fc;strokeColor=#6c8ebf;" parent="D7f5AKQHRCtzAQtNA1vA-196" vertex="1">
          <mxGeometry x="5.41617021276596" width="14.711489361702128" height="10.191914893617023" as="geometry" />
        </mxCell>
        <mxCell id="D7f5AKQHRCtzAQtNA1vA-198" value="" style="edgeStyle=none;endArrow=none;dashed=0;html=1;strokeWidth=1;rounded=0;entryX=0.5;entryY=1;entryDx=0;entryDy=0;" parent="D7f5AKQHRCtzAQtNA1vA-196" target="D7f5AKQHRCtzAQtNA1vA-197" edge="1">
          <mxGeometry relative="1" as="geometry">
            <mxPoint x="1.8297872340425534" y="22.262464705882337" as="sourcePoint" />
            <mxPoint x="10.035654798441996" y="12.598002229089396" as="targetPoint" />
          </mxGeometry>
        </mxCell>
        <mxCell id="D7f5AKQHRCtzAQtNA1vA-199" style="edgeStyle=orthogonalEdgeStyle;rounded=0;orthogonalLoop=1;jettySize=auto;html=1;exitX=1;exitY=0.5;exitDx=0;exitDy=0;entryX=0;entryY=0.5;entryDx=0;entryDy=0;endArrow=none;endFill=0;" parent="D7f5AKQHRCtzAQtNA1vA-245" source="D7f5AKQHRCtzAQtNA1vA-154" target="D7f5AKQHRCtzAQtNA1vA-192" edge="1">
          <mxGeometry relative="1" as="geometry" />
        </mxCell>
        <mxCell id="D7f5AKQHRCtzAQtNA1vA-202" style="edgeStyle=orthogonalEdgeStyle;rounded=0;orthogonalLoop=1;jettySize=auto;html=1;exitX=1;exitY=0.5;exitDx=0;exitDy=0;entryX=0;entryY=0.5;entryDx=0;entryDy=0;endArrow=none;endFill=0;" parent="D7f5AKQHRCtzAQtNA1vA-245" source="D7f5AKQHRCtzAQtNA1vA-173" target="D7f5AKQHRCtzAQtNA1vA-191" edge="1">
          <mxGeometry relative="1" as="geometry" />
        </mxCell>
        <mxCell id="D7f5AKQHRCtzAQtNA1vA-210" style="edgeStyle=orthogonalEdgeStyle;rounded=0;orthogonalLoop=1;jettySize=auto;html=1;exitX=1;exitY=0.5;exitDx=0;exitDy=0;entryX=0;entryY=0.5;entryDx=0;entryDy=0;endArrow=none;endFill=0;" parent="D7f5AKQHRCtzAQtNA1vA-245" source="D7f5AKQHRCtzAQtNA1vA-159" target="D7f5AKQHRCtzAQtNA1vA-195" edge="1">
          <mxGeometry relative="1" as="geometry">
            <mxPoint x="89" y="56.925294117647" as="targetPoint" />
          </mxGeometry>
        </mxCell>
        <mxCell id="MDvvoWK_F6UgvLszBhcK-11" style="edgeStyle=orthogonalEdgeStyle;rounded=0;orthogonalLoop=1;jettySize=auto;html=1;entryX=0.5;entryY=1;entryDx=0;entryDy=0;endArrow=none;endFill=0;" parent="WIyWlLk6GJQsqaUBKTNV-1" source="D7f5AKQHRCtzAQtNA1vA-49" target="D7f5AKQHRCtzAQtNA1vA-106" edge="1">
          <mxGeometry relative="1" as="geometry">
            <Array as="points">
              <mxPoint x="173" y="270" />
              <mxPoint x="630" y="270" />
              <mxPoint x="630" y="411" />
            </Array>
            <mxPoint x="160" y="280" as="sourcePoint" />
          </mxGeometry>
        </mxCell>
        <mxCell id="R48aDF-17FCD-8zo76Ul-0" value="" style="group;labelPosition=center;verticalLabelPosition=bottom;align=center;verticalAlign=top;strokeWidth=2;" parent="WIyWlLk6GJQsqaUBKTNV-1" vertex="1" connectable="0">
          <mxGeometry x="540" y="302" width="190" height="108.65" as="geometry" />
        </mxCell>
        <mxCell id="D7f5AKQHRCtzAQtNA1vA-106" value="&lt;font style=&quot;font-size: 16px;&quot;&gt;Dataset of chain graphs&lt;/font&gt;" style="rounded=0;whiteSpace=wrap;html=1;labelPosition=center;verticalLabelPosition=bottom;align=center;verticalAlign=top;dashed=1;" parent="R48aDF-17FCD-8zo76Ul-0" vertex="1">
          <mxGeometry width="190" height="108.65" as="geometry" />
        </mxCell>
        <mxCell id="D7f5AKQHRCtzAQtNA1vA-53" value="" style="strokeWidth=1;dashed=0;align=center;fontSize=8;shape=ellipse;perimeter=ellipsePerimeter;whiteSpace=wrap;html=1;aspect=fixed;fillColor=#ffe6cc;strokeColor=#d79b00;" parent="R48aDF-17FCD-8zo76Ul-0" vertex="1">
          <mxGeometry x="15" y="10.646326530612242" width="18.040816326530614" height="12.489795918367347" as="geometry" />
        </mxCell>
        <mxCell id="D7f5AKQHRCtzAQtNA1vA-54" value="..." style="strokeWidth=1;dashed=0;align=center;fontSize=12;shape=ellipse;perimeter=ellipsePerimeter;whiteSpace=wrap;html=1;aspect=fixed;strokeColor=none;" parent="R48aDF-17FCD-8zo76Ul-0" vertex="1">
          <mxGeometry x="89.33333333333337" y="8.340204081632663" width="18.040816326530614" height="12.489795918367347" as="geometry" />
        </mxCell>
        <mxCell id="D7f5AKQHRCtzAQtNA1vA-55" value="" style="strokeWidth=1;dashed=0;align=center;fontSize=8;shape=ellipse;perimeter=ellipsePerimeter;whiteSpace=wrap;html=1;aspect=fixed;fillColor=#ffe6cc;strokeColor=#d79b00;" parent="R48aDF-17FCD-8zo76Ul-0" vertex="1">
          <mxGeometry x="54.166666666666686" y="11.340204081632663" width="18.040816326530614" height="12.489795918367347" as="geometry" />
        </mxCell>
        <mxCell id="D7f5AKQHRCtzAQtNA1vA-56" value="" style="edgeStyle=none;endArrow=none;dashed=0;html=1;strokeWidth=1;rounded=0;" parent="R48aDF-17FCD-8zo76Ul-0" source="D7f5AKQHRCtzAQtNA1vA-55" target="D7f5AKQHRCtzAQtNA1vA-53" edge="1">
          <mxGeometry relative="1" as="geometry" />
        </mxCell>
        <mxCell id="D7f5AKQHRCtzAQtNA1vA-57" value="" style="edgeStyle=none;endArrow=none;dashed=0;html=1;strokeWidth=1;rounded=0;" parent="R48aDF-17FCD-8zo76Ul-0" source="D7f5AKQHRCtzAQtNA1vA-55" edge="1">
          <mxGeometry relative="1" as="geometry">
            <mxPoint x="85" y="17.650000000000006" as="targetPoint" />
          </mxGeometry>
        </mxCell>
        <mxCell id="D7f5AKQHRCtzAQtNA1vA-58" value="" style="strokeWidth=1;dashed=0;align=center;fontSize=8;shape=ellipse;perimeter=ellipsePerimeter;whiteSpace=wrap;html=1;aspect=fixed;fillColor=#ffe6cc;strokeColor=#d79b00;" parent="R48aDF-17FCD-8zo76Ul-0" vertex="1">
          <mxGeometry x="121.13" y="11.33632653061224" width="18.040816326530614" height="12.489795918367347" as="geometry" />
        </mxCell>
        <mxCell id="D7f5AKQHRCtzAQtNA1vA-60" value="" style="strokeWidth=1;dashed=0;align=center;fontSize=8;shape=ellipse;perimeter=ellipsePerimeter;whiteSpace=wrap;html=1;aspect=fixed;fillColor=#ffe6cc;strokeColor=#d79b00;" parent="R48aDF-17FCD-8zo76Ul-0" vertex="1">
          <mxGeometry x="160.29666666666662" y="12.030204081632661" width="18.040816326530614" height="12.489795918367347" as="geometry" />
        </mxCell>
        <mxCell id="D7f5AKQHRCtzAQtNA1vA-61" value="" style="edgeStyle=none;endArrow=none;dashed=0;html=1;strokeWidth=1;rounded=0;" parent="R48aDF-17FCD-8zo76Ul-0" source="D7f5AKQHRCtzAQtNA1vA-60" target="D7f5AKQHRCtzAQtNA1vA-58" edge="1">
          <mxGeometry relative="1" as="geometry" />
        </mxCell>
        <mxCell id="D7f5AKQHRCtzAQtNA1vA-67" value="" style="edgeStyle=none;endArrow=none;dashed=0;html=1;strokeWidth=1;rounded=0;" parent="R48aDF-17FCD-8zo76Ul-0" edge="1">
          <mxGeometry relative="1" as="geometry">
            <mxPoint x="108" y="17.650000000000006" as="sourcePoint" />
            <mxPoint x="121" y="17.650000000000006" as="targetPoint" />
          </mxGeometry>
        </mxCell>
        <mxCell id="D7f5AKQHRCtzAQtNA1vA-68" value="" style="strokeWidth=1;dashed=0;align=center;fontSize=8;shape=ellipse;perimeter=ellipsePerimeter;whiteSpace=wrap;html=1;aspect=fixed;fillColor=#ffe6cc;strokeColor=#d79b00;" parent="R48aDF-17FCD-8zo76Ul-0" vertex="1">
          <mxGeometry x="14" y="32.64632653061224" width="18.040816326530614" height="12.489795918367347" as="geometry" />
        </mxCell>
        <mxCell id="D7f5AKQHRCtzAQtNA1vA-69" value="..." style="strokeWidth=1;dashed=0;align=center;fontSize=12;shape=ellipse;perimeter=ellipsePerimeter;whiteSpace=wrap;html=1;aspect=fixed;strokeColor=none;" parent="R48aDF-17FCD-8zo76Ul-0" vertex="1">
          <mxGeometry x="87.33333333333337" y="33.34020408163266" width="18.040816326530614" height="12.489795918367347" as="geometry" />
        </mxCell>
        <mxCell id="D7f5AKQHRCtzAQtNA1vA-70" value="" style="strokeWidth=1;dashed=0;align=center;fontSize=8;shape=ellipse;perimeter=ellipsePerimeter;whiteSpace=wrap;html=1;aspect=fixed;fillColor=#ffe6cc;strokeColor=#d79b00;" parent="R48aDF-17FCD-8zo76Ul-0" vertex="1">
          <mxGeometry x="53.166666666666686" y="33.34020408163266" width="18.040816326530614" height="12.489795918367347" as="geometry" />
        </mxCell>
        <mxCell id="D7f5AKQHRCtzAQtNA1vA-71" value="" style="edgeStyle=none;endArrow=none;dashed=0;html=1;strokeWidth=1;rounded=0;" parent="R48aDF-17FCD-8zo76Ul-0" source="D7f5AKQHRCtzAQtNA1vA-70" target="D7f5AKQHRCtzAQtNA1vA-68" edge="1">
          <mxGeometry relative="1" as="geometry" />
        </mxCell>
        <mxCell id="D7f5AKQHRCtzAQtNA1vA-72" value="" style="edgeStyle=none;endArrow=none;dashed=0;html=1;strokeWidth=1;rounded=0;" parent="R48aDF-17FCD-8zo76Ul-0" source="D7f5AKQHRCtzAQtNA1vA-70" edge="1">
          <mxGeometry relative="1" as="geometry">
            <mxPoint x="84" y="39.650000000000006" as="targetPoint" />
          </mxGeometry>
        </mxCell>
        <mxCell id="D7f5AKQHRCtzAQtNA1vA-73" value="" style="strokeWidth=1;dashed=0;align=center;fontSize=8;shape=ellipse;perimeter=ellipsePerimeter;whiteSpace=wrap;html=1;aspect=fixed;fillColor=#ffe6cc;strokeColor=#d79b00;" parent="R48aDF-17FCD-8zo76Ul-0" vertex="1">
          <mxGeometry x="120.13" y="33.33632653061224" width="18.040816326530614" height="12.489795918367347" as="geometry" />
        </mxCell>
        <mxCell id="D7f5AKQHRCtzAQtNA1vA-74" value="" style="strokeWidth=1;dashed=0;align=center;fontSize=8;shape=ellipse;perimeter=ellipsePerimeter;whiteSpace=wrap;html=1;aspect=fixed;fillColor=#ffe6cc;strokeColor=#d79b00;" parent="R48aDF-17FCD-8zo76Ul-0" vertex="1">
          <mxGeometry x="160.29666666666662" y="34.03020408163266" width="18.040816326530614" height="12.489795918367347" as="geometry" />
        </mxCell>
        <mxCell id="D7f5AKQHRCtzAQtNA1vA-75" value="" style="edgeStyle=none;endArrow=none;dashed=0;html=1;strokeWidth=1;rounded=0;" parent="R48aDF-17FCD-8zo76Ul-0" target="D7f5AKQHRCtzAQtNA1vA-73" edge="1">
          <mxGeometry relative="1" as="geometry">
            <mxPoint x="159.2992794695988" y="40.12480545147744" as="sourcePoint" />
          </mxGeometry>
        </mxCell>
        <mxCell id="D7f5AKQHRCtzAQtNA1vA-76" value="" style="edgeStyle=none;endArrow=none;dashed=0;html=1;strokeWidth=1;rounded=0;" parent="R48aDF-17FCD-8zo76Ul-0" edge="1">
          <mxGeometry relative="1" as="geometry">
            <mxPoint x="107" y="39.650000000000006" as="sourcePoint" />
            <mxPoint x="120" y="39.650000000000006" as="targetPoint" />
          </mxGeometry>
        </mxCell>
        <mxCell id="D7f5AKQHRCtzAQtNA1vA-86" value="" style="strokeWidth=1;dashed=0;align=center;fontSize=8;shape=ellipse;perimeter=ellipsePerimeter;whiteSpace=wrap;html=1;aspect=fixed;fillColor=#ffe6cc;strokeColor=#d79b00;" parent="R48aDF-17FCD-8zo76Ul-0" vertex="1">
          <mxGeometry x="15" y="55.64632653061224" width="18.040816326530614" height="12.489795918367347" as="geometry" />
        </mxCell>
        <mxCell id="D7f5AKQHRCtzAQtNA1vA-87" value="..." style="strokeWidth=1;dashed=0;align=center;fontSize=12;shape=ellipse;perimeter=ellipsePerimeter;whiteSpace=wrap;html=1;aspect=fixed;strokeColor=none;" parent="R48aDF-17FCD-8zo76Ul-0" vertex="1">
          <mxGeometry x="88.33333333333337" y="53.34020408163266" width="18.040816326530614" height="12.489795918367347" as="geometry" />
        </mxCell>
        <mxCell id="D7f5AKQHRCtzAQtNA1vA-88" value="" style="strokeWidth=1;dashed=0;align=center;fontSize=8;shape=ellipse;perimeter=ellipsePerimeter;whiteSpace=wrap;html=1;aspect=fixed;fillColor=#ffe6cc;strokeColor=#d79b00;" parent="R48aDF-17FCD-8zo76Ul-0" vertex="1">
          <mxGeometry x="54.166666666666686" y="56.34020408163266" width="18.040816326530614" height="12.489795918367347" as="geometry" />
        </mxCell>
        <mxCell id="D7f5AKQHRCtzAQtNA1vA-89" value="" style="edgeStyle=none;endArrow=none;dashed=0;html=1;strokeWidth=1;rounded=0;" parent="R48aDF-17FCD-8zo76Ul-0" source="D7f5AKQHRCtzAQtNA1vA-88" target="D7f5AKQHRCtzAQtNA1vA-86" edge="1">
          <mxGeometry relative="1" as="geometry" />
        </mxCell>
        <mxCell id="D7f5AKQHRCtzAQtNA1vA-90" value="" style="edgeStyle=none;endArrow=none;dashed=0;html=1;strokeWidth=1;rounded=0;" parent="R48aDF-17FCD-8zo76Ul-0" source="D7f5AKQHRCtzAQtNA1vA-88" edge="1">
          <mxGeometry relative="1" as="geometry">
            <mxPoint x="85" y="62.650000000000006" as="targetPoint" />
          </mxGeometry>
        </mxCell>
        <mxCell id="D7f5AKQHRCtzAQtNA1vA-91" value="" style="strokeWidth=1;dashed=0;align=center;fontSize=8;shape=ellipse;perimeter=ellipsePerimeter;whiteSpace=wrap;html=1;aspect=fixed;fillColor=#ffe6cc;strokeColor=#d79b00;" parent="R48aDF-17FCD-8zo76Ul-0" vertex="1">
          <mxGeometry x="121.13" y="56.33632653061224" width="18.040816326530614" height="12.489795918367347" as="geometry" />
        </mxCell>
        <mxCell id="D7f5AKQHRCtzAQtNA1vA-92" value="" style="strokeWidth=1;dashed=0;align=center;fontSize=8;shape=ellipse;perimeter=ellipsePerimeter;whiteSpace=wrap;html=1;aspect=fixed;fillColor=#ffe6cc;strokeColor=#d79b00;" parent="R48aDF-17FCD-8zo76Ul-0" vertex="1">
          <mxGeometry x="160.29666666666662" y="57.03020408163266" width="18.040816326530614" height="12.489795918367347" as="geometry" />
        </mxCell>
        <mxCell id="D7f5AKQHRCtzAQtNA1vA-93" value="" style="edgeStyle=none;endArrow=none;dashed=0;html=1;strokeWidth=1;rounded=0;" parent="R48aDF-17FCD-8zo76Ul-0" source="D7f5AKQHRCtzAQtNA1vA-92" target="D7f5AKQHRCtzAQtNA1vA-91" edge="1">
          <mxGeometry relative="1" as="geometry" />
        </mxCell>
        <mxCell id="D7f5AKQHRCtzAQtNA1vA-94" value="" style="edgeStyle=none;endArrow=none;dashed=0;html=1;strokeWidth=1;rounded=0;" parent="R48aDF-17FCD-8zo76Ul-0" edge="1">
          <mxGeometry relative="1" as="geometry">
            <mxPoint x="108" y="62.650000000000006" as="sourcePoint" />
            <mxPoint x="121" y="62.650000000000006" as="targetPoint" />
          </mxGeometry>
        </mxCell>
        <mxCell id="D7f5AKQHRCtzAQtNA1vA-95" value="" style="strokeWidth=1;dashed=0;align=center;fontSize=8;shape=ellipse;perimeter=ellipsePerimeter;whiteSpace=wrap;html=1;aspect=fixed;fillColor=#ffe6cc;strokeColor=#d79b00;" parent="R48aDF-17FCD-8zo76Ul-0" vertex="1">
          <mxGeometry x="14" y="77.64632653061224" width="18.040816326530614" height="12.489795918367347" as="geometry" />
        </mxCell>
        <mxCell id="D7f5AKQHRCtzAQtNA1vA-96" value="..." style="strokeWidth=1;dashed=0;align=center;fontSize=12;shape=ellipse;perimeter=ellipsePerimeter;whiteSpace=wrap;html=1;aspect=fixed;strokeColor=none;" parent="R48aDF-17FCD-8zo76Ul-0" vertex="1">
          <mxGeometry x="87.33333333333337" y="78.34020408163266" width="18.040816326530614" height="12.489795918367347" as="geometry" />
        </mxCell>
        <mxCell id="D7f5AKQHRCtzAQtNA1vA-97" value="" style="strokeWidth=1;dashed=0;align=center;fontSize=8;shape=ellipse;perimeter=ellipsePerimeter;whiteSpace=wrap;html=1;aspect=fixed;fillColor=#ffe6cc;strokeColor=#d79b00;" parent="R48aDF-17FCD-8zo76Ul-0" vertex="1">
          <mxGeometry x="53.166666666666686" y="78.34020408163266" width="18.040816326530614" height="12.489795918367347" as="geometry" />
        </mxCell>
        <mxCell id="D7f5AKQHRCtzAQtNA1vA-98" value="" style="edgeStyle=none;endArrow=none;dashed=0;html=1;strokeWidth=1;rounded=0;" parent="R48aDF-17FCD-8zo76Ul-0" source="D7f5AKQHRCtzAQtNA1vA-97" target="D7f5AKQHRCtzAQtNA1vA-95" edge="1">
          <mxGeometry relative="1" as="geometry" />
        </mxCell>
        <mxCell id="D7f5AKQHRCtzAQtNA1vA-99" value="" style="edgeStyle=none;endArrow=none;dashed=0;html=1;strokeWidth=1;rounded=0;" parent="R48aDF-17FCD-8zo76Ul-0" source="D7f5AKQHRCtzAQtNA1vA-97" edge="1">
          <mxGeometry relative="1" as="geometry">
            <mxPoint x="84" y="84.65" as="targetPoint" />
          </mxGeometry>
        </mxCell>
        <mxCell id="D7f5AKQHRCtzAQtNA1vA-100" value="" style="strokeWidth=1;dashed=0;align=center;fontSize=8;shape=ellipse;perimeter=ellipsePerimeter;whiteSpace=wrap;html=1;aspect=fixed;fillColor=#ffe6cc;strokeColor=#d79b00;" parent="R48aDF-17FCD-8zo76Ul-0" vertex="1">
          <mxGeometry x="120.13" y="78.33632653061224" width="18.040816326530614" height="12.489795918367347" as="geometry" />
        </mxCell>
        <mxCell id="D7f5AKQHRCtzAQtNA1vA-101" value="" style="strokeWidth=1;dashed=0;align=center;fontSize=8;shape=ellipse;perimeter=ellipsePerimeter;whiteSpace=wrap;html=1;aspect=fixed;fillColor=#ffe6cc;strokeColor=#d79b00;" parent="R48aDF-17FCD-8zo76Ul-0" vertex="1">
          <mxGeometry x="159.29666666666662" y="79.03020408163266" width="18.040816326530614" height="12.489795918367347" as="geometry" />
        </mxCell>
        <mxCell id="D7f5AKQHRCtzAQtNA1vA-102" value="" style="edgeStyle=none;endArrow=none;dashed=0;html=1;strokeWidth=1;rounded=0;" parent="R48aDF-17FCD-8zo76Ul-0" source="D7f5AKQHRCtzAQtNA1vA-101" target="D7f5AKQHRCtzAQtNA1vA-100" edge="1">
          <mxGeometry relative="1" as="geometry" />
        </mxCell>
        <mxCell id="D7f5AKQHRCtzAQtNA1vA-103" value="" style="edgeStyle=none;endArrow=none;dashed=0;html=1;strokeWidth=1;rounded=0;" parent="R48aDF-17FCD-8zo76Ul-0" edge="1">
          <mxGeometry relative="1" as="geometry">
            <mxPoint x="107" y="84.65" as="sourcePoint" />
            <mxPoint x="120" y="84.65" as="targetPoint" />
          </mxGeometry>
        </mxCell>
        <mxCell id="MDvvoWK_F6UgvLszBhcK-6" style="edgeStyle=orthogonalEdgeStyle;rounded=0;orthogonalLoop=1;jettySize=auto;html=1;exitX=0.5;exitY=1;exitDx=0;exitDy=0;" parent="R48aDF-17FCD-8zo76Ul-0" source="D7f5AKQHRCtzAQtNA1vA-106" target="D7f5AKQHRCtzAQtNA1vA-106" edge="1">
          <mxGeometry relative="1" as="geometry" />
        </mxCell>
      </root>
    </mxGraphModel>
  </diagram>
</mxfile>
